# xmcd
#
# Track frame offsets: 
#        150
#        16964
#        32278
#        47732
#        65220
#        76192
#        85177
#        100557
#        112813
#        125370
#        140245
#        156639
#        168289
#        181928
#        198859
#        212043
#        223349
#        234632
#        250045
#        267177
#        280613
#        294060
#        307474
#        317860
#        331325
#        345696
#
# Disc length: 4799 seconds
#
# Revision: 0
# Processed by: cddbd v1.5.1PL2 Copyright (c) Steve Scherf et al.
# Submitted via: ExactAudioCopy v0.95b3
#
DISCID=7912bd1a
DTITLE=Jimmy Witherspoon - Sings The Blues Sessions
DYEAR=2003
DGENRE=Blues
TTITLE0=Stormy Monday Blues
TTITLE1=I'll Never Be Free
TTITLE2=She Moves Me
TTITLE3=Card Playing Blues
TTITLE4=Boogie Woogie Woman
TTITLE5=Please Hurry Home
TTITLE6=Don't Have to Cry
TTITLE7=Jelly Jelly Blues
TTITLE8=Riding Blues
TTITLE9=Blues Come Falling Down
TTITLE10=Sad Life Blues
TTITLE11=Cain River Blues
TTITLE12=Playful Baby
TTITLE13=When My Heart Beats Like a Hammer
TTITLE14=Gee Baby Ain't I Good to You
TTITLE15=Story From My Heart and Soul
TTITLE16=You Gotta Crawl Before You Walk
TTITLE17=I Need Somebody
TTITLE18=Telephone Blues
TTITLE19=Your Cheating Heart
TTITLE20=Ain't Nobody's Business Part 1
TTITLE21=Ain't Nobody's Business Part 2
TTITLE22=Endless Sleep
TTITLE23=How Long How Long Blues
TTITLE24=When My Heart Beats Like a Hammer
TTITLE25=The Wind Is Blowin'
EXTD=
EXTT0=
EXTT1=
EXTT2=
EXTT3=
EXTT4=
EXTT5=
EXTT6=
EXTT7=
EXTT8=
EXTT9=
EXTT10=
EXTT11=
EXTT12=
EXTT13=
EXTT14=
EXTT15=
EXTT16=
EXTT17=
EXTT18=
EXTT19=
EXTT20=
EXTT21=
EXTT22=
EXTT23=
EXTT24=
EXTT25=
PLAYORDER=
